<?xml version="1.0" encoding="UTF-8"?>
<svg version="1.1" viewBox="0 0 1200 1200" xml:space="preserve" xmlns="http://www.w3.org/2000/svg"><path d="m128.21 590.72c39.83-29.365 115.76-103.96 115.76-103.96 13.659-7.5274 43.8-26.539 66.678-36.004l53.22 28.19c11.857-12.184 18.419-2.8348 30.738 4.0943 7.4904 4.0435 19.66 7.3289 27.173 9.5018 16.873-24.127 43.895 12.212 72.855 24.292 9.1031 3.7972 6.7077-16.075 20.054-9.8469 46.367 14.836 140.99 66.171 140.99 66.171l43.124 3.0649 26.319-9.7975c0.0832-6.4734-1.2715-16.047-8.688-15.662-25.88 0.72284-40.348-5.7137-42.768-29.971-10.124-9.1508-14.584-25.582-11.221-35.908-11.042-25.196-8.7236-42.902 13.798-58.126l-139.76-3.508 145.65-0.67315c19.105-7.4288 33.118-0.097 33.118-0.097l308.86-0.80581-11.202-16.715-204.72-4.7305 201.15-3.0474s-11.932-19.171-18.708-28.302c-164.57-4.1431-332.84-6.5725-474.03-9.286-0.0559 0-0.10889-9e-3 -0.15545-0.0272-0.31649-0.13963-0.29212-0.21386 0.0709-0.22363 154.4-0.67022 309.46-1.1687 465.15-1.4945l-13.308-18.389c-73.41-5.9699-153.33-6.4786-217.53-8.8388-0.0559 0-0.10889-9e-3 -0.15545-0.0272-0.3165-0.14899-0.29213-0.22363 0.0709-0.22363 69.322-0.58645 138.54-0.99723 207.65-1.23l-17.846-19.742c-127.72-3.2022-255.45-6.3926-383.19-9.5668-1.6849-0.0373-1.5555-0.22829 0.38998-0.57271 0.19549-0.0373 0.40223-0.0546 0.61634-0.0546 122.2-0.65161 245.09-1.117 368.68-1.3963l-32.974-30.325-144.2-3.453 137.06-1.2143-51.284-34.054-154.71-5.3616-9.6623 0.0546c-1.4708 0.01-1.4708-0.0697 0-0.23726 3.1743-0.36303 6.0459-0.49949 8.6151-0.40635 1.0333-0.26991 2.7786-0.40361 5.2361-0.40361 47.502 0.22597 101.1 1.5379 139.18 0.47361-320.54-150.93-652.09 36.559-696.1 367.84zm591.66-164.55 5.6744 5.9184c27.889 3.0612 33.693 10.279 39.679 29.946 0 0 193.64-1.1212 275.05-1.5569l-12.58-28.946c-102.51 0.0878-205.56-6.6571-307.82-5.362zm46.464 39.289c0 15.838-10.441 25.891-19.335 31.026 7.3198 3.9097 21.198 33.107 21.287 38.611l296.28-0.87813c0.4329 0 0.769-0.40472 0.6572-0.82361l-2.9753-11.787-282.44-6.1988c-0.46545-0.0279 0.0139-0.0409 0.0139-0.0409l281.22-0.25989-8.8962-26.998-89.865-3.8807 88.571-0.61597-3.9151-9.5345s-187.37-6.0582-280.6-8.6195zm4.4783 73.932 0.8384 13.216 22.829 14.953 33.357-0.49612 51.441 27.809c0.4189 0.23737 0.8785 0.3494 1.3254 0.33543l35.87-1.4372c0.4467-0.0139 0.8672-0.1977 1.2163-0.49088 5.5572-4.8685 10.989-9.8762 16.295-15.024 3.4907-3.3884 6.3423-5.3881 8.5578-6.0025 3.7234-1.024 7.4469-0.26682 11.17 2.2744 4.4216 3.016 9.1334 6.1534 14.132 9.4114 0.8518 0.54456 1.8698 0.71223 2.8472 0.46089 3.3977-0.89364 6.8338-1.3304 10.306-1.3118 2.5506 0.0186 5.3059 0.72542 8.2661 2.1217 14.121 6.7022 28.222 13.451 42.306 20.246 3.7514 1.8152 8.4961 4.5418 14.23 8.1815 10.538 6.6743 21.052 13.353 31.542 20.036 0.5864 0.37235 0.8695 0.20998 0.8508-0.48816-0.6702-24.082-3.0017-47.799-6.9952-71.154l-41.944-1.2552 41.012-1.8096c-0.2421-5.1012-1.259-10.368-2.9346-15.199zm-667.67 279.88c-123.06-5.8722-130.36 1.6413-2.4559 41.699 79.492 38.387 53.401 22.137 73.699-27.392 8.5742-34.813 59.807 8.1587 78.599-27.579 10.246-19.486-4.5327-25.083-4.5327-25.083-63.092-0.41185-127.06-29.302-194.52-12.068zm858.28 0.63657c117.75-20.844 56.222 77.572 98.285 61.797 42.909-21.864 94.006-36.274 136.89-57.421 9.1707-14.075-92.505-5.7107-92.505-5.7107l48.934-51.214c-47.612-17.794-207.08 18.053-207.08 18.053zm-4.8976 8.158c-113.96 4.8656-227.9 10.991-341.92 14.577-95.018-1.2461-189.92-8.0477-284.92-10.451-209.13-16.866-115.08 6.2702-169.09 88.612 0 0 157.77 48.987 421.87 47.335 264.1-1.6525 464.36-47.527 464.36-47.527-45.946-55.582 16.265-99.016-90.299-92.546z" fill="#faca08"/><path d="m309.61 463.45c-0.29322-7e-3 -0.59223 0.0595-0.8645 0.19909l-58.588 30.525c-1.4056 0.72608-2.6109 1.6943-3.6162 2.9044-4.9336 5.9296-10.157 11.495-15.668 16.698-21.652 20.479-43.365 40.892-65.138 61.241-3.137 2.9322-7.2226 6.2937-12.259 10.082-52.347 39.263-104.49 78.149-153.01 114.78-0.67022 0.50267-0.62862 0.51844 0.12546 0.0437 55.113-35.247 108.62-68.973 159.77-101.88 0.0744-0.0465 1.8486-1.1311 5.3207-3.2535 2.9695-1.8245 5.505-3.6862 7.6088-5.5852 19.52-17.705 39.036-35.409 58.547-53.114 6.1251-5.5573 12.521-10.76 19.186-15.61l20.053-14.579c0.0465-0.0373 0.45029-0.39497 1.2136-1.0745 0.65161-0.57714 1.4331-0.93055 2.3454-1.0609 0.49335-0.0744 0.60973 0.10362 0.34907 0.53179l-16.098 26.723c-0.46543 0.77262-0.2614 1.034 0.61362 0.7827l50.602-14.607c1.6849-0.48405 1.8429-0.17231 0.47453 0.93542-32.515 26.39-64.971 52.657-97.365 78.796-7.2235 5.8366-14.666 11.406-22.327 16.712-45.892 31.761-91.783 63.527-137.68 95.298-0.36304 0.24203-0.3847 0.38276-0.0682 0.41998 0.0932 0.0186 0.18942-1e-3 0.29181-0.0573 46.972-25.664 93.935-51.355 140.89-77.075 1.3311-0.72608 3.4543-2.2101 6.3679-4.4534 22.639-17.361 45.192-34.848 67.664-52.46 1.1822-0.93085 1.4106-0.73549 0.68452 0.58635l-17.007 30.817c-0.20944 0.37701-1e-3 0.83767 0.40362 0.93542l23.642 5.7952c1.1915 0.28857 1.3252 0.83735 0.40362 1.6472l-17.983 15.888c-0.87966 0.76793-1.245 1.9828-0.95177 3.1417l1.5926 6.4661c0.2653 1.0891-0.0839 2.2343-0.92176 3.0162-5.79 5.3804-11.404 10.601-16.84 15.665-2.6902 2.504-5.0174 5.308-6.9815 8.4078-14.186 22.415-28.27 44.894-42.252 67.44-0.11171 0.16756-0.16635 0.30828-0.16635 0.41998-0.0279 0.33512 0.10142 0.34382 0.38998 0.0273l51.175-57.262c1.3125-1.4708 1.5739-1.3257 0.7827 0.43362l-35.802 79.813c-0.19547 0.46078 0.0144 0.96345 0.44726 1.0472l5.877 1.0745c0.33511 0.0559 0.76874-0.18316 1.1318-0.62997l32.284-39.446c0.61438-0.754 0.98509-0.64628 1.1154 0.32182l6.3816 46.329c0.0698 0.54456 0.27981 0.97959 0.55907 1.189l4.8298 3.559c0.57711 0.4282 0.87588 0.26151 0.8945-0.50182l1.7181-62.108c0.0139-0.47475 0.18163-0.90818 0.46089-1.2572l30.119-37.839c0.50267-0.62833 1.2406-1.0477 2.0645-1.1454 6.4695-0.7633 12.595-1.2087 18.376-1.339 4.552-0.0931 9.6014 0.45135 15.149 1.6336 28.876 6.153 57.616 12.212 86.222 18.179 1.1543 0.24202 1.249 0.0224 0.28089-0.65725l-36.219-25.635c-0.44681-0.30719-0.76819-0.74091-0.92178-1.2436l-9.9705-32.688c-0.23272-0.77263 0.0373-1.0313 0.80998-0.77997l92.993 30.048c1.1449 0.37236 1.369 0.0649 0.67087-0.92178l-18.097-25.734c-0.2653-0.36303-0.29127-0.83931-0.0818-1.2163l5.487-9.8287c0.18151-0.33512 0.57139-0.52971 0.97632-0.50182 11.375 0.74471 22.561 1.4802 33.555 2.2063 7.3259 0.49337 14.65 0.51504 21.975 0.0682 21.326-1.2939 42.653-2.5408 63.979-3.7417 0.48406-0.0279 0.5084-0.1486 0.0709-0.3627-1.7407-0.82847-4.1799-1.6803-7.317-2.5554-13.768-3.8352-34.33-9.9102-61.688-18.223-2.3272-0.70747-4.4417-1.838-6.3406-3.3926-19.409-16.002-38.9-31.989-58.476-47.963-2.0572-1.6849-1.8158-2.1259 0.72542-1.3254l50.406 15.888c0.41889 0.13962 0.88153 0.042 1.2027-0.23727l21.738-18.85c0.55852-0.48871 1.3131-0.61503 1.9554-0.32181l35.633 16.101c0.83779 0.39096 1.5502 0.97567 2.0808 1.7018l27.97 39.154c0.78193 1.0984 1.098 0.97775 0.94905-0.3627l-3.7007-33.135c-0.0744-0.62369 0.15825-0.78171 0.69815-0.47453 19.576 11.068 39.074 22.01 58.492 32.827 1.8059 1.0053 3.7423 1.5412 5.8088 1.6063 20.088 0.62369 40.185 1.1481 60.292 1.5763 2.653 0.0559 5.0218-0.26022 7.107-0.94905 2.2992-0.76331 4.5431-1.6741 6.7306-2.7353 1.387-0.66092 2.4342-1.9409 3.1417-3.8398l3.4771-9.2451c0.40958-1.0891 0.0492-1.4225-1.0772-1.0036-6.2554 2.2992-12.295 4.5734-18.122 6.8261-2.1596 0.82846-4.3775 1.1889-6.6488 1.0772-13.581-0.67023-27.147-1.5508-40.7-2.6399-2.6809-0.2141-5.2522-0.90361-7.7097-2.0672-45.789-21.605-91.415-43.178-136.88-64.718-0.92156-0.43285-2.0095-0.13936-2.6099 0.68451l-4.2189 5.7788c-0.79589 1.1031-1.8429 1.8595-2.918 2.1108l-9.9405 2.3181c-0.34907 0.0838-0.82402-0.0289-1.2708-0.30817l-54.903-33.623c-0.58645-0.36304-1.369-0.30735-1.9554 0.12544l-11.1 8.3069c-0.34908 0.2653-0.82372 0.34898-1.2845 0.23727-7.4376-1.871-14.676-3.9411-21.714-6.2125-4.524-1.4708-9.0836-3.5279-13.682-6.1716-4.254-2.4389-8.6167-4.9371-13.085-7.497-0.37699-0.22341-0.8524-0.0715-1.02 0.30544l-4.4807 10.025c-0.2653 0.58645-0.96388 0.81169-1.4945 0.50451l-55.28-32.24c-0.25832-0.15359-0.54674-0.23574-0.83996-0.24272zm461.71 104.75c-0.24785 0.10296-0.44868 0.32158-0.50453 0.62178l-1.8708 10.418c-0.1117 0.6004 0.14093 1.2003 0.6436 1.5354l13.906 9.3269c0.54456 0.37701 0.7121 1.1163 0.34907 1.6608l-6.1579 9.4823c-0.63298 0.9681-0.38022 1.3588 0.75544 1.1727l32.268-5.2498c0.46079-0.0698 0.92321-0.0155 1.3281 0.18l77.228 35.649c1.1635 0.53992 1.1879 1.1304 0.071 1.7726l-14.956 8.5306c-1.5824 0.90293-1.4547 1.3927 0.3791 1.4672l94.112 4.1044c0.1676 0.0139 0.3071-0.13854 0.2373-0.27817-0.065-0.121-0.1556-0.19568-0.2673-0.22362-17.221-3.9748-34.609-7.9684-52.165-11.98-0.4561-0.10242-0.8712-0.31349-1.2436-0.62997l-15.553-13.055c-1.0705-0.90294-0.8995-1.423 0.5154-1.5627l21.154-2.0263c0.6145-0.0559 1.2179-0.25124 1.8136-0.58635l22.846-12.804c0.4607-0.2653 1.0194-0.30731 1.5081-0.11182 20.256 7.8658 40.478 15.824 60.668 23.876 7.4283 2.9602 14.842 6.425 22.243 10.39 15.936 8.5268 31.939 16.918 48.006 25.174 4.3844 2.2527 8.9771 4.0771 13.78 5.4734 35.513 10.342 70.998 20.773 106.45 31.291 1.2008 0.35375 1.4492 0.22441 0.7417-0.38997-0.1303-0.1117-0.2753-0.2021-0.4335-0.26726-34.591-13.758-69.141-27.609-103.65-41.554-1.6755-0.67954-4.0817-2.0098-7.2187-3.9926-14.345-9.0574-28.666-18.151-42.964-27.282-7.7075-4.9243-15.429-9.2999-23.164-13.126-13.116-6.4975-26.434-12.955-39.95-19.368-0.6004-0.29322-1.3244-0.38987-2.0644-0.27817l-14.048 2.0372c-0.4189 0.0559-0.8799-0.0538-1.2709-0.31908l-17.481-12.051c-0.8238-0.57248-1.9275-0.48783-2.6535 0.19636l-21.335 20.233c-0.4747 0.44682-1.1051 0.71114-1.7753 0.73907l-43.201 1.7317c-0.6982 0.0279-1.3959-0.12576-1.9963-0.46087l-49.416-27.242c-0.73539-0.40028-1.5212-0.59565-2.359-0.58634l-34.084 0.37634c-0.46078 0-0.89386-0.12501-1.2708-0.37634l-17.159-11.563c-0.25134-0.16756-0.54848-0.17934-0.79632-0.0764zm-45.841 41.338c-1.3125 0-2.6406 0.41834-3.7717 1.1863l-17.454 11.926c-0.53992 0.36304-1.159 0.60009-1.8572 0.7118l-37.098 5.9616c-0.79124 0.12102-1.5138 0.42842-2.1654 0.92178-7.2794 5.4456-14.12 10.682-20.525 15.708-1.2846 1.0146-3.7238 2.2859-7.317 3.8126-10.435 4.4496-20.912 8.7808-31.43 12.998-3.165 1.2567-7.9887 3.966-14.468 8.1269-12.408 7.9496-24.802 15.919-37.182 23.906-0.27926 0.18617-0.45737 0.35284-0.53179 0.50178-0.23272 0.42821-0.033 0.51155 0.59998 0.25091l55.74-23.276c0.87967-0.37701 1.9568-0.46002 3.0599-0.26455 5.8133 1.0574 11.63 2.1729 17.454 3.1335l55.53-29.971 18.564 1.8354-16.712 28.278-37.719 34.537s30.926-16.617 47.079-25.316c7.3766-6.435 12.243-14.468 19.491-21.885 9.4176 14.414 17.893 29.441 27.187 43.935 0.27926 0.46078 0.92222 0.58601 1.369 0.2509l9.5369-6.9679c0.61437-0.44682 1.3677-0.66914 2.1217-0.62726l94.894 4.5653c0.2932 0.0139 0.5447-0.15424 0.4609-0.3218-0.056-0.1117-0.2382-0.19504-0.5454-0.2509-22.657-3.8817-45.78-7.8379-69.368-11.869-0.58646-0.0977-1.1021-0.43274-1.4372-0.93541l-23.388-33.525c-1.1356-1.6197-0.81094-2.0148 0.97633-1.1863 22.778 10.593 46.259 19.977 70.442 28.15 1.3591 0.45612 1.4624 0.24937 0.30816-0.61635l-18.626-14.031c-0.36304-0.2653-0.60106-0.68462-0.67088-1.1454l-1.7181-11.157c-0.15824-0.97741 0.21087-1.2518 1.1045-0.82361 16.867 8.0706 33.906 16.095 51.118 24.073 3.7886 1.7593 7.1961 2.5825 10.221 2.4708 1.778-0.0559 2.7046-0.0845 2.779-0.0845 38.398 0.68883 76.797 1.3367 115.2 1.9417 1.2474 0.0279 1.8709-0.0711 1.8709-0.29454 0-0.2141-0.3075-0.35648-0.9219-0.4309-39.655-5.1477-79.109-10.309-118.36-15.485-1.4894-0.19547-2.9231-0.59327-4.3007-1.189-28.615-12.52-57.268-24.929-85.957-37.226-1.7966-0.77262-4.1037-2.2149-6.9242-4.328-6.3765-4.794-13.183-9.8678-20.416-15.22-0.65626-0.48871-1.4643-0.75269-2.2881-0.75269zm232.17 23.71c-0.7627 0.0453-0.4276 0.30521 1.0036 0.77995l38.859 12.861c0.8657 0.28857 0.8829 0.63331 0.055 1.0336-2.5506 1.2381-5.4396 2.2983-8.6697 3.1826-0.5678 0.15824-0.8866 0.3953-0.9518 0.71179-0.056 0.33512 0.3367 0.68594 0.8673 0.74179l55.364 6.4934c1.4521 0.16756 1.5112-0.0435 0.18-0.62997l-50.684-22.368c-1.0332-0.45612-2.0545-0.71753-3.0598-0.78268l-31.834-1.9963c-0.498-0.0326-0.8748-0.0424-1.129-0.0272zm-366.43 9.0051c-0.0162-0.0279-0.13737 0.0137-0.36544 0.12544l-38.707 18.515c-1.7035 0.80985-3.4159 1.1633-5.138 1.0608-9.8951-0.61437-19.586-1.1474-29.072-1.6036-2.7926-0.13031-5.5278 0.21443-8.2088 1.0336-15.536 4.7754-30.865 9.4973-45.983 14.17-2.0665 0.6423-2.0249 1.0071 0.12544 1.0909l40.411 1.7018c1.145 0.0465 1.2153 0.34096 0.21 0.88087-9.588 5.1291-19.22 10.378-28.892 15.749-5.4828 3.044-15.76 7.4282-30.83 13.153-2.1876 0.82847-4.4574 1.1819-6.8124 1.0609-13.144-0.65161-26.288-1.288-39.432-1.9117-2.3923-0.11171-2.48 0.27903-0.26454 1.1727 8.5082 3.4163 17.351 7.0435 26.53 10.879 2.3551 0.98673 4.7986 1.5068 7.3306 1.5627 7.4376 0.15824 14.898 0.27462 22.382 0.34908 1.5639 0.0186 1.6472 0.38068 0.25091 1.0881-13.004 6.5905-26.212 13.368-39.626 20.331-4.3192 2.2434-8.8026 4.0548-13.448 5.4325-13.135 3.9003-26.259 7.8278-39.375 11.784-3.379 1.024-6.4288 1.6431-9.1469 1.8572-15.145 1.2101-30.268 2.6438-45.366 4.3007-0.25133 0.0279-0.37636 0.10691-0.37636 0.23726 0 0.13964 0.16659 0.26662 0.39 0.29454 15.089 1.899 30.146 4.028 45.17 6.3924 2.6902 0.42821 5.3665 0.38654 8.0288-0.12545 25.562-4.9336 50.458-9.7417 74.689-14.424 3.3046-0.64229 3.4036-0.31918 0.29453 0.96542-26.25 10.854-52.469 21.763-78.654 32.729-5.4083 2.2713-10.956 4.0914-16.644 5.4598l-48.257 11.672c-0.24204 0.0559-0.36705 0.1549-0.37636 0.29452-0.0139 0.1536 0.17988 0.29214 0.41726 0.27818l79.758-2.4299c1.6849-0.0559 3.2019-0.56727 4.5516-1.5354 9.2156-6.5998 18.812-13.415 28.791-20.443 2.0014-1.4149 4.1906-2.3761 6.5643-2.8881 12.576-2.7461 25.184-5.3217 37.826-7.7233 2.9415-0.55853 5.9052-0.63754 8.8933-0.23726 21.717 2.9695 43.417 6.0781 65.097 9.3269 0.40492 0.0698 0.69814 0.40502 0.69814 0.80995l-0.12544 38.497c0 0.78193 0.5294 1.4117 1.2136 1.4536l6.4934 0.36273c0.39097 0.0279 0.78151-0.28102 0.94907-0.74179l19.158-52.361c0.15359-0.40494 0.50289-0.70984 0.92179-0.79361l82.646-15.878c0.37701-0.0698 0.74081 0.19571 0.7827 0.57271 0.47474 4.3006 0.47474 8.6059 0 12.916-0.0559 0.43285-0.30753 0.82414-0.68452 1.0336l-47.153 25.245c-2.4668 1.3218-2.3461 1.6379 0.36271 0.94905l127.31-32.311c1.5546-0.39097 3.1262-0.50733 4.718-0.34908l72.553 7.2897c0.74004 0.0838 1.4371 0.36314 2.0236 0.80996l31.739 24.645c0.60506 0.47474 0.86213 0.3297 0.76906-0.43362l-2.9044-23.554c-0.0698-0.5725 0.46143-1.0342 1.02-0.89452l98.172 25.245c1.2472 0.31651 1.3593 0.0881 0.3354-0.68451l-26.445-19.911c-0.3909-0.29323-0.5859-0.7828-0.4881-1.2436l3.1826-16.81c0.084-0.46077 0.6007-0.71396 1.0335-0.50451l34.6 17.203c0.4748 0.23737 1.0486 0.16908 1.4536-0.18 5.9762-5.1198 12.505-8.1191 19.589-8.9942 6.5813-0.80986 13.143-1.7451 19.687-2.8063 0.3771-0.0698 0.6003-0.43122 0.4746-0.76633-1.1822-3.3232-3.5266-5.3917-7.036-6.2016-10.91-2.504-21.848-4.9146-32.813-7.2324-0.4747-0.0977-0.8251-0.41932-0.8808-0.79632-0.1021-0.7447 0.3873-1.045 1.4671-0.90541 0.7168 0.0931 1.2742 0.12336 1.6745 0.0955 17.798-1.5266 35.58-3.2303 53.34-5.1107 2.5133-0.26994 4.9899-0.0632 7.4288 0.61635 12.371 3.4442 24.727 6.948 37.07 10.513 2.3829 0.67952 4.8222 0.90359 7.3168 0.67087 2.4855-0.24202 4.975-0.47042 7.4697-0.68451 1.2846-0.11171 1.342-0.44347 0.1692-0.99269-17.994-8.443-36.012-16.888-54.052-25.341-2.262-1.0612-4.6396-1.6473-7.1342-1.759-13.2-0.57713-21.145-0.87155-23.835-0.88087-1.778-9e-3 -3.1743-0.22904-4.189-0.65723-0.4747-0.19549-0.4417-0.31619 0.099-0.36272 17.742-1.6849 35.446-3.7046 53.114-6.0597 2.5134-0.33512 4.8692-1.1209 7.0661-2.359 11.841-6.665 23.639-13.414 35.396-20.246 1.7872-1.0426 1.6952-1.2466-0.2782-0.61361-13.619 4.3844-27.378 8.9067-41.276 13.57-1.8617 0.62368-4.775 0.9641-8.7405 1.02-29.555 0.43751-59.11 0.96899-88.665 1.5927-4.0772 0.0931-6.8698-0.0894-8.3779-0.54542-12.762-3.8352-25.566-7.5587-38.412-11.17-0.5492-0.15824-0.6439-0.0176-0.2809 0.41998l18.348 22.131c0.3351 0.40493 0.1535 1.0194-0.3491 1.159l-41.805 12.316c-1.0333 0.30719-2.1179 0.37049-3.2535 0.19362l-59.58-8.8932c-0.50267-0.0744-0.52269-9e-3 -0.0573 0.19636l57.292 26.039c0.6144 0.27925 0.6777 0.54499 0.1936 0.79632-0.2793 0.14894-0.683 0.18196-1.2136 0.0981-10.882-1.7407-21.765-3.4861-32.647-5.2362-4.2913-0.69815-8.4688-1.8531-12.537-3.4635-11.012-4.3751-22.356-8.8714-34.029-13.489-0.65627-0.25134-1.369-0.306-2.0672-0.16637l-33.579 7.2052c-0.44682 0.0977-0.90684 0.0425-1.3118-0.13909l-18.182-8.2388c-0.40493-0.18151-0.69686-0.55982-0.75271-0.99268l-3.8971-25.174c-0.16756-1.0984-0.59132-1.2061-1.2709-0.3218l-21.46 27.872c-0.62834 0.80986-1.579 1.3125-2.6263 1.3963-19.12 1.387-37.522 2.7216-55.209 4.0062-1.6662 0.12099-4.4876 0.78614-8.4624 1.9963-14.568 4.4216-29.089 8.971-43.564 13.644-0.31649 0.10241-0.58654 0.12835-0.80995 0.0818-0.58646-0.13031-0.57781-0.37169 0.0272-0.72542l52.948-30.664c1.2846-0.73537 1.2056-1.2728-0.23726-1.6172l-21.294-5.0971c-1.9455-0.46542-2.0002-1.0932-0.16636-1.8845l29.404-12.79c1.3032-0.56783 1.2486-0.89095-0.16636-0.96541-10.51-0.54922-20.857-0.89398-31.04-1.0336-3.4815-0.0465-6.9349 0.39726-10.36 1.3281-15.052 4.1051-30.075 8.3157-45.072 12.635-0.0838 0.0187-1.3794 0.34606-3.8835 0.97904-2.2248 0.55852-4.3609 1.3644-6.4088 2.4163-11.738 6.0506-23.404 12.248-35.003 18.596-0.55852 0.30719-0.88164 0.36891-0.96542 0.18272-0.0744-0.13962 2.2e-4 -0.33067 0.22363-0.57269 12.651-14.326 25.163-28.768 37.534-43.326 2.1317-2.5134 4.4848-4.8146 7.0633-6.8997 16.002-12.902 31.834-26.002 47.491-39.304 0.19548-0.16754 0.28355-0.26659 0.26726-0.29452zm-357.72 3.338-27.563 1.0036c-0.44682 0.0139-0.8812 0.18338-1.2163 0.50452-13.926 12.79-27.768 25.669-41.526 38.636-2.4575 2.3179-4.5449 4.9324-6.267 7.846-7.419 12.52-14.765 25.091-22.035 37.714-0.80056 1.387-0.6382 1.5104 0.48816 0.36543l45.535-46.22c0.27926-0.27926 0.7239-0.25025 0.90542 0.0709l3.7989 6.8424c0.82847 1.4987 1.518 1.4787 2.0672-0.0573l9.3978-26.374c0.22341-0.64229 0.97578-0.89549 1.4645-0.50452l2.6126 2.0808c0.85174 0.67023 2.0948 0.37709 2.4299-0.58636 0.53991-1.4987 1.1893-2.8993 1.9526-4.2025 0.71676-1.2287 1.8214-2.2386 3.3108-3.0299 8.2382-4.403 16.554-8.671 24.951-12.804 1.8804-0.93086 1.7797-1.359-0.30544-1.2845zm453.91 8.8851c-2.9706 0.0506-5.915 0.4058-8.8333 1.069-0.43284 0.0977-0.83756 0.32213-1.1727 0.65725-3.5838 3.649-7.2153 7.2475-10.892 10.794-3.5932 3.4628-7.5824 6.6262-11.967 9.4932-4.3937 2.8671-8.732 5.6711-13.014 8.4078-1.9269 1.238-1.8019 1.5168 0.37635 0.83724l21.266-6.6188c0.78193-0.24204 1.4887-0.65282 2.1217-1.23l25.262-22.843c0.35372-0.31649 0.29635-0.48751-0.16909-0.51543-0.99604-0.0512-1.9878-0.0687-2.9781-0.0518z" fill="#000001" fill-opacity=".996" stroke-width="1.3963"/><path d="m465.95 295.93c-0.0442-0.0442-0.2384 0.056-0.57816 0.30272-9.5135 6.8791-19.459 10.381-29.838 10.502-9.3645 0.1117-16.695 0.51112-21.992 1.2-9.5042 1.2381-17.724 5.493-24.659 12.763-0.27925 0.29322-0.71177 0.34852-1.0608 0.13907-8.2382-4.887-16.974-5.7849-26.208-2.6944-1.4242 0.48404-4.9193 1.8603-10.486 4.1316-6.8419 2.8019-10.324 4.2226-10.445 4.2598-7.2515 2.2806-14.681 1.9489-22.286-0.99267-1.1636-0.44682-1.2312-0.31042-0.20726 0.40634 7.0932 4.9708 15.144 7.0409 24.154 6.2125 5.3432-0.48407 10.678-1.0458 16.003-1.6881 6.6092-0.80053 11.31-1.0706 14.102-0.80995 4.7754 0.44682 9.388 1.6851 13.838 3.7144 3.286 1.508 5.9422 1.0269 7.9715-1.4399 3.6025-4.3937 7.4997-7.7107 11.689-9.9541 4.4589-2.383 10.244-4.1901 17.356-5.4189 6.2089-1.0798 12.376-2.3397 18.501-3.7826 9.439-2.2155 17.384-7.6427 23.835-16.281 0.25134-0.33511 0.35511-0.52576 0.3109-0.56998zm-73.876 56.79c-0.0464 0.0465 0.0112 0.20377 0.17454 0.46907 0.66091 1.0705 1.5501 1.9727 2.6672 2.7081 4.7195 3.1091 9.8566 5.2609 15.414 6.4525 4.3192 0.93087 8.1591 3.0713 11.52 6.4224 0.85174 0.86571 2.1507 1.076 3.2398 0.54544 5.7807-2.8205 11.897-3.2026 18.348-1.1454 6.2554 1.9921 12.493 2.0668 18.711 0.22363 0.36305-0.10231 0.69641-0.25177 1.0036-0.44725 1.9828-1.1915 1.9568-1.6396-0.0818-1.3418-5.6783 0.83778-11.105 0.164-16.281-2.0236-3.0346-1.2846-4.5717-1.9324-4.6089-1.9417-5.5108-1.8059-11.067-1.7442-16.671 0.18273-0.41889 0.13962-0.87945 0.0402-1.1727-0.2809-4.7474-4.8964-10.44-6.9335-17.077-6.1143-5.1942 0.64229-10.106-0.52995-14.732-3.518-0.25599-0.17222-0.40617-0.23744-0.45271-0.1909zm10.639 28.005c-0.0791-0.0465-0.29966 0.0456-0.6627 0.27817-6.0506 3.8166-12.11 5.5246-18.179 5.1243-6.9164-0.45613-12.618-0.68884-17.105-0.69816-7.419-0.0186-13.99 2.3876-19.715 7.2188-0.32115 0.2653-0.76938 0.29431-1.1045 0.0709-3.5373-2.4016-7.3355-3.7606-11.394-4.0771-2.6809-0.2141-6.7161 0.50135-12.106 2.149-6.1437 1.8897-10.57 3.0116-13.279 3.3653-3.6397 0.47474-7.7296-0.24778-12.272-2.1654-0.43751-0.18617-0.47052-0.12874-0.0981 0.16907 4.5799 3.6769 9.8664 5.51 15.861 5.5007 3.9562-0.01 7.9081-0.11701 11.855-0.32181 6.5347-0.33511 12.706 0.93186 18.515 3.7989 3.0719 1.5173 5.5901 1.3392 7.5542-0.5318 1.5732-1.508 2.3877-2.2781 2.4435-2.3154 4.8405-3.4442 10.248-5.3763 16.224-5.7952 2.6902-0.18619 4.0606-0.28522 4.1071-0.29454 4.3006-0.44681 8.5859-1.0042 12.859-1.6745 6.1996-0.96811 11.291-3.8067 15.275-8.5169 0.11171-0.13962 0.3401-0.28467 0.68453-0.43361 0.15824-0.0744 0.27459-0.17352 0.34907-0.29453 0.20478-0.32581 0.2673-0.50981 0.18817-0.55635z" fill="#00002c" stroke-width="1.3963"/><path d="m696.16 434.8c-5.566 0.21915-10.808 2.7162-15.241 5.9594-5.3206 3.9139-8.8566 10.027-9.7983 16.546-0.99677 5.8536-0.11883 12.132 3.1258 17.179 1.679 2.7398 3.8822 5.1425 6.3906 7.144-3.3846 4.1801-5.3308 9.7588-4.2298 15.13 0.83928 4.8188 3.9459 9.1647 8.2915 11.434 1.684 0.96466 3.6646 1.594 5.4561 2.055-1.8722 3.3562-2.4555 7.4038-1.8334 11.179 0.71995 4.4362 4.1169 8.0244 8.1652 9.7437 4.1484 1.8862 8.7164 2.8325 13.276 2.6172 3.8624 0.0717 7.5962-0.0538 11.436 0.606 5.7729 1.0047 10.799 4.8068 13.878 9.7223 4.2613 6.2536 5.9521 13.982 5.5071 21.477-0.13935 3.8159-0.47047 7.9521-1.0343 11.872-0.76267 5.6283-2.1485 11.157-3.981 16.528-0.43656 1.8484 0.91247 3.8895 2.8559 3.9789 2.0149 0.19259 3.3761-1.5394 4.4391-2.9885 7.7706-9.7769 12.309-22.165 12.21-34.689-0.0863-11.397-3.369-22.564-8.091-32.861-4.002-8.6788-9.4431-16.633-15.715-23.823-3.4175-4.1767-6.7346-8.6626-8.0799-13.982-0.92549-3.5687-1.269-7.36-0.64223-11.005 0.0909-0.62539 0.67543-1.2953 1.3151-0.80365 2.1717 1.0692 4.1812 2.5718 6.6256 2.9874 6.908 1.4874 14.656-2.801 16.776-9.6061 1.3375-4.3899 0.40933-9.2514-1.7214-13.235-3.2756-5.9377-10.141-9.3026-16.811-9.1458-4.4241 0.0327-8.8388 1.1595-12.723 3.2827-0.0879-7.0417-5.0443-13.533-11.609-15.894-2.619-0.99918-5.431-1.5084-8.2362-1.4076z" fill="none" stroke="#000" stroke-width="7.4004"/></svg>
