<svg id="svg" xmlns="http://www.w3.org/2000/svg" xmlns:xlink="http://www.w3.org/1999/xlink" width="400" height="400" viewBox="0, 0, 400,400" version="1.1"><g id="svgg"><path id="path0" d="M201.400 17.864 C 195.981 19.025,195.851 19.373,195.600 33.357 C 195.365 46.493,195.479 46.180,191.759 43.836 C 186.028 40.225,182.542 37.971,181.808 37.399 C 175.409 32.418,166.484 40.135,171.111 46.648 C 171.778 47.588,176.917 51.600,177.452 51.600 C 177.598 51.600,178.726 52.258,179.959 53.062 C 181.191 53.866,183.370 55.275,184.800 56.193 C 186.230 57.111,188.707 58.708,190.305 59.743 C 191.903 60.777,193.631 61.784,194.145 61.979 C 196.230 62.772,196.345 84.800,194.265 84.800 C 193.822 84.800,188.452 81.453,183.290 77.960 C 176.789 73.560,170.400 76.120,170.400 83.124 C 170.400 86.547,171.584 87.513,190.000 99.124 C 195.919 102.855,195.489 101.857,195.551 112.000 C 195.619 123.119,196.966 125.545,202.836 125.120 C 207.949 124.750,208.777 122.724,208.790 110.543 L 208.800 102.085 211.700 100.165 C 213.295 99.109,215.275 97.830,216.100 97.323 C 218.148 96.063,219.911 94.941,224.611 91.911 C 226.817 90.488,229.067 89.093,229.611 88.810 C 236.488 85.241,234.655 74.800,227.151 74.800 C 225.737 74.800,222.015 76.418,221.216 77.381 C 220.933 77.722,220.549 78.000,220.361 78.000 C 220.174 78.000,217.975 79.339,215.476 80.976 C 210.161 84.456,208.929 84.923,208.732 83.535 C 208.660 83.021,208.651 77.968,208.713 72.306 L 208.826 62.012 211.313 60.306 C 214.618 58.038,217.860 55.952,224.600 51.754 C 232.868 46.604,233.909 45.361,233.502 41.124 C 232.948 35.353,227.267 33.381,221.444 36.937 C 214.491 41.182,212.988 42.133,212.800 42.404 C 212.588 42.709,209.383 44.400,209.016 44.400 C 208.897 44.400,208.800 39.674,208.800 33.897 C 208.800 22.843,208.650 21.553,207.164 19.844 C 206.483 19.061,202.452 17.266,202.227 17.646 C 202.212 17.672,201.840 17.770,201.400 17.864 M294.183 69.552 C 290.021 71.443,288.956 76.370,291.003 84.268 C 291.298 85.405,291.661 87.835,291.810 89.668 C 291.958 91.500,292.327 93.900,292.630 95.000 C 293.496 98.150,293.916 102.642,293.425 103.515 C 293.082 104.126,286.669 110.102,283.473 112.789 C 283.073 113.125,282.173 113.914,281.473 114.541 C 277.458 118.141,276.400 118.226,276.400 114.950 C 276.400 114.236,276.207 113.145,275.970 112.526 C 275.734 111.907,275.284 109.336,274.970 106.812 C 274.065 99.535,273.235 97.830,269.904 96.397 C 263.517 93.649,259.024 99.126,260.810 107.480 C 261.036 108.536,261.477 111.200,261.791 113.400 C 262.104 115.600,262.725 119.740,263.171 122.600 C 264.372 130.301,264.709 129.463,258.190 135.000 C 256.895 136.100,254.575 138.194,253.034 139.653 L 250.233 142.306 250.259 145.237 L 250.286 148.168 252.182 149.884 C 254.892 152.338,259.213 152.298,261.400 149.799 C 261.620 149.547,263.060 148.256,264.600 146.929 C 266.140 145.602,268.300 143.671,269.400 142.638 C 272.726 139.513,273.683 139.176,276.800 140.032 C 278.230 140.425,280.686 141.096,282.258 141.524 C 283.831 141.952,285.296 142.412,285.516 142.548 C 285.735 142.683,287.059 143.052,288.457 143.368 C 289.856 143.683,293.146 144.578,295.768 145.357 C 301.939 147.190,303.457 146.935,306.188 143.611 C 308.051 141.344,308.383 138.910,307.144 136.600 C 305.651 133.815,304.447 133.123,297.800 131.235 C 286.229 127.947,286.280 127.973,288.154 126.249 C 291.252 123.398,295.953 119.239,298.781 116.845 C 300.442 115.440,301.944 114.045,302.120 113.745 C 302.593 112.939,306.421 113.060,308.983 113.960 C 310.173 114.378,311.924 114.850,312.873 115.008 C 313.823 115.165,315.050 115.522,315.600 115.800 C 316.150 116.078,317.410 116.437,318.400 116.597 C 319.390 116.758,320.955 117.229,321.878 117.644 C 322.801 118.060,323.920 118.400,324.364 118.400 C 324.808 118.400,326.016 118.687,327.049 119.037 C 333.413 121.198,338.654 116.781,336.909 110.728 C 335.946 107.388,332.426 105.479,323.345 103.373 C 320.858 102.796,317.200 101.403,317.200 101.032 C 317.200 100.750,318.568 99.430,322.624 95.800 C 324.591 94.040,326.290 92.509,326.400 92.398 C 326.510 92.287,328.166 90.788,330.080 89.067 C 333.212 86.250,333.587 85.761,333.825 84.172 C 335.008 76.287,327.591 73.460,321.197 79.359 C 307.577 91.925,306.724 92.525,306.257 89.873 C 306.134 89.173,305.868 87.700,305.665 86.600 C 305.462 85.500,305.001 82.530,304.640 80.000 C 303.610 72.779,302.271 70.287,298.874 69.269 C 296.783 68.643,296.093 68.684,294.183 69.552 M102.067 71.258 C 99.871 72.345,98.483 74.435,98.004 77.374 C 97.798 78.641,97.536 79.975,97.423 80.339 C 97.309 80.702,96.954 83.003,96.634 85.450 C 95.626 93.163,95.032 93.836,91.866 90.853 C 90.730 89.782,89.080 88.300,88.200 87.561 C 87.320 86.821,84.686 84.475,82.346 82.347 C 76.409 76.947,71.900 76.125,69.309 79.969 C 66.598 83.992,67.304 86.557,72.382 91.143 C 78.868 97.000,82.048 99.787,82.614 100.108 C 82.912 100.277,83.538 100.952,84.005 101.607 L 84.854 102.799 83.727 103.229 C 81.979 103.895,74.888 105.983,72.007 106.680 C 66.479 108.018,63.793 111.401,64.789 115.769 C 65.918 120.719,70.152 122.202,77.000 120.044 C 80.146 119.052,84.045 117.929,88.200 116.815 C 89.740 116.402,91.720 115.800,92.600 115.477 C 96.036 114.213,98.045 114.228,99.806 115.528 C 103.808 118.484,114.871 128.786,114.675 129.374 C 114.540 129.781,109.477 131.528,108.302 131.573 C 107.641 131.599,106.043 132.077,100.000 134.058 C 94.445 135.879,92.470 140.444,95.352 144.799 C 97.512 148.063,100.267 148.586,106.200 146.859 C 114.148 144.547,120.730 142.667,124.670 141.585 C 127.811 140.722,128.662 140.850,130.455 142.456 C 131.035 142.975,132.205 144.009,133.055 144.754 C 133.905 145.499,135.410 146.855,136.400 147.768 C 137.390 148.680,139.274 150.294,140.586 151.354 L 142.972 153.281 145.747 153.124 C 149.704 152.900,151.597 150.837,151.599 146.745 L 151.600 144.089 149.484 141.945 C 148.320 140.765,146.744 139.260,145.982 138.600 C 145.219 137.940,143.092 136.052,141.255 134.404 L 137.913 131.408 138.189 128.204 C 138.340 126.442,138.702 123.650,138.993 122.000 C 139.284 120.350,139.737 117.560,140.000 115.800 C 140.263 114.040,140.730 111.185,141.039 109.456 C 142.246 102.692,141.375 99.768,137.630 98.014 C 131.744 95.257,127.804 99.031,126.787 108.400 C 126.584 110.270,126.144 112.844,125.809 114.120 C 125.474 115.395,125.200 116.858,125.200 117.371 C 125.200 119.734,122.804 118.627,117.903 114.000 C 117.327 113.455,114.206 110.633,109.851 106.715 C 107.961 105.016,107.802 103.309,108.991 97.460 C 109.310 95.887,109.755 93.250,109.980 91.600 C 110.204 89.950,110.644 87.127,110.958 85.326 C 111.459 82.442,111.770 77.912,111.643 75.331 C 111.473 71.886,105.732 69.444,102.067 71.258 M162.962 115.106 C 162.654 115.313,162.535 121.118,162.562 134.686 L 162.600 153.972 167.600 158.824 C 170.350 161.493,175.030 166.027,178.000 168.900 C 180.970 171.772,186.230 176.906,189.689 180.308 C 193.972 184.521,196.173 186.419,196.589 186.260 C 197.376 185.958,197.525 148.572,196.745 147.074 C 196.495 146.593,195.190 145.133,193.845 143.828 C 189.399 139.515,175.493 125.932,169.779 120.320 C 164.200 114.841,163.806 114.540,162.962 115.106 M230.563 123.914 C 225.923 128.471,218.625 135.620,214.346 139.800 C 210.067 143.980,206.346 147.940,206.077 148.600 C 205.712 149.499,205.616 154.469,205.695 168.400 L 205.800 187.000 206.677 187.000 C 207.485 187.000,212.409 182.323,237.067 158.139 L 240.800 154.478 240.800 135.039 L 240.800 115.600 239.900 115.614 C 239.276 115.623,236.409 118.172,230.563 123.914 M251.053 163.286 C 249.949 163.515,248.169 165.107,242.137 171.260 C 237.992 175.489,232.710 180.874,230.400 183.228 C 217.835 196.030,216.904 197.123,217.992 197.795 C 218.795 198.291,255.562 198.048,256.519 197.540 C 257.004 197.283,258.750 195.691,260.400 194.003 C 263.462 190.870,288.201 165.501,289.089 164.584 C 290.347 163.284,288.749 163.155,270.448 163.077 C 260.540 163.035,251.812 163.129,251.053 163.286 M115.900 164.228 C 115.090 165.052,116.373 166.580,126.301 176.611 C 132.185 182.558,139.421 189.911,142.379 192.951 C 145.337 195.992,148.158 198.632,148.646 198.817 C 149.134 199.003,157.809 199.157,167.922 199.159 C 189.870 199.163,189.241 199.302,185.152 195.364 C 183.802 194.064,182.405 192.646,182.049 192.212 C 181.692 191.779,177.333 187.279,172.363 182.212 C 167.392 177.146,161.451 171.065,159.161 168.700 L 154.997 164.400 137.354 164.400 C 127.651 164.400,118.922 164.293,117.956 164.162 C 116.990 164.031,116.065 164.061,115.900 164.228 M80.612 169.023 C 75.313 171.013,74.382 176.084,78.254 181.859 C 79.227 183.310,80.505 185.331,81.093 186.349 C 81.681 187.367,82.267 188.290,82.396 188.400 C 83.516 189.358,85.129 192.586,84.797 193.206 C 84.393 193.960,67.999 194.393,64.009 193.755 C 62.173 193.461,62.723 194.144,56.850 184.884 C 49.091 172.652,47.942 170.958,47.009 170.374 C 43.279 168.041,38.127 169.406,36.567 173.141 C 35.273 176.237,36.302 179.654,40.196 185.195 C 40.968 186.293,41.600 187.291,41.600 187.412 C 41.600 187.689,43.143 189.918,44.126 191.061 C 44.533 191.534,44.806 192.344,44.733 192.861 L 44.600 193.800 34.034 193.913 C 22.280 194.038,21.631 194.164,19.700 196.695 C 17.676 199.349,17.887 202.270,20.282 204.755 L 22.253 206.800 34.139 206.800 C 44.456 206.800,46.056 206.881,46.261 207.414 C 46.504 208.047,45.228 210.317,41.131 216.542 C 39.849 218.489,38.800 220.244,38.800 220.442 C 38.800 220.639,38.399 221.201,37.908 221.692 C 36.453 223.147,36.370 227.511,37.756 229.605 C 40.867 234.307,46.619 233.931,50.087 228.800 C 51.656 226.478,56.248 219.287,60.102 213.115 C 61.368 211.088,62.928 208.837,63.568 208.114 L 64.732 206.800 74.866 206.806 C 87.591 206.814,87.296 206.601,83.161 212.800 C 79.754 217.907,78.454 220.000,78.207 220.776 C 78.064 221.229,77.785 221.600,77.588 221.600 C 75.814 221.600,76.323 227.870,78.272 230.027 C 81.802 233.934,86.826 233.047,90.196 227.922 C 91.253 226.315,92.451 224.512,92.859 223.916 C 93.266 223.320,93.600 222.749,93.600 222.648 C 93.600 222.546,94.414 221.234,95.408 219.731 C 97.845 216.050,97.811 216.103,99.430 213.600 C 100.213 212.390,101.184 210.770,101.588 210.000 C 103.258 206.815,103.103 206.858,113.534 206.722 L 122.863 206.600 124.202 205.138 C 127.565 201.467,126.254 195.685,121.777 194.442 C 120.910 194.201,116.870 193.993,112.800 193.979 C 102.361 193.944,102.145 193.881,100.530 190.400 C 100.245 189.784,94.688 181.195,91.938 177.120 C 91.092 175.865,90.400 174.678,90.400 174.482 C 90.400 174.285,90.056 173.813,89.637 173.433 C 89.217 173.053,88.666 172.242,88.412 171.630 C 87.508 169.446,83.263 168.027,80.612 169.023 M355.000 170.348 C 353.215 171.457,346.400 180.964,346.400 182.345 C 346.400 182.541,346.131 182.925,345.803 183.198 C 345.474 183.471,344.631 184.708,343.929 185.947 C 343.227 187.186,342.539 188.290,342.399 188.400 C 342.260 188.510,341.469 189.706,340.642 191.057 C 337.888 195.559,339.034 195.200,327.417 195.200 C 317.461 195.200,316.000 195.090,316.000 194.343 C 316.000 194.029,318.692 189.673,322.325 184.107 C 326.324 177.982,326.550 174.874,323.216 171.862 C 318.765 167.841,314.581 169.551,309.780 177.354 C 308.547 179.359,306.384 182.800,304.974 185.000 C 303.565 187.200,302.062 189.642,301.635 190.427 C 301.208 191.211,300.575 192.089,300.229 192.376 C 299.883 192.663,299.600 193.124,299.600 193.400 C 299.600 194.781,298.384 194.998,289.440 195.211 C 279.036 195.459,278.168 195.706,276.559 198.880 C 275.395 201.178,275.364 202.172,276.385 204.449 C 277.949 207.939,278.725 208.170,289.637 208.400 C 294.861 208.510,299.208 208.690,299.297 208.800 C 299.975 209.638,301.739 212.282,303.000 214.351 C 303.440 215.073,305.240 217.893,307.000 220.618 C 308.760 223.343,311.050 226.892,312.088 228.505 C 316.849 235.901,324.739 235.533,326.000 227.856 C 326.420 225.295,325.861 223.933,321.911 217.887 C 321.080 216.616,320.400 215.463,320.400 215.325 C 320.400 215.188,319.950 214.486,319.400 213.764 C 318.850 213.043,318.400 212.289,318.400 212.089 C 318.400 211.888,318.032 211.391,317.582 210.984 C 315.179 208.809,316.018 208.609,328.061 208.494 L 339.122 208.387 340.261 209.980 C 340.887 210.855,342.120 212.758,343.000 214.208 C 343.880 215.658,345.742 218.590,347.138 220.722 C 348.534 222.855,349.974 225.119,350.338 225.752 C 350.702 226.386,351.211 227.270,351.469 227.716 C 355.424 234.565,362.840 235.127,365.569 228.784 C 367.022 225.406,366.147 223.443,357.499 210.673 C 355.984 208.436,356.148 208.400,367.852 208.400 C 378.504 208.400,378.534 208.398,380.226 207.406 C 384.751 204.754,384.495 198.139,379.785 195.993 C 378.183 195.264,377.160 195.200,367.009 195.200 C 358.093 195.200,355.935 195.096,355.767 194.658 C 355.526 194.029,356.330 192.591,360.162 186.800 C 365.402 178.881,366.129 176.588,364.443 173.284 C 362.726 169.920,358.037 168.462,355.000 170.348 M218.412 206.986 C 217.870 207.639,217.395 207.129,239.135 229.236 C 244.049 234.233,248.348 238.719,248.688 239.204 C 250.306 241.515,250.940 241.582,271.000 241.585 C 281.120 241.587,289.649 241.430,289.953 241.237 C 290.778 240.715,290.694 240.621,276.390 226.010 C 269.245 218.713,262.104 211.361,260.519 209.671 L 257.639 206.600 238.278 206.489 C 221.353 206.392,218.853 206.455,218.412 206.986 M149.200 207.986 C 148.430 208.407,143.814 212.857,138.942 217.876 C 134.069 222.894,127.004 230.128,123.242 233.950 C 116.473 240.826,115.925 241.546,116.900 242.277 C 117.834 242.977,153.719 242.967,155.055 242.266 C 156.496 241.510,157.205 240.826,167.155 230.590 C 171.641 225.975,178.217 219.230,181.769 215.600 C 186.729 210.531,188.195 208.799,188.090 208.133 L 187.953 207.266 169.276 207.243 C 151.616 207.222,150.524 207.263,149.200 207.986 M206.500 218.030 L 205.600 218.374 205.610 236.287 C 205.615 246.139,205.774 254.869,205.964 255.686 C 206.251 256.922,207.980 258.802,216.255 266.879 C 221.725 272.217,229.073 279.424,232.584 282.893 C 237.086 287.341,239.238 289.200,239.884 289.200 L 240.800 289.200 240.800 270.697 C 240.800 260.521,240.641 251.640,240.447 250.963 C 240.126 249.846,235.983 245.584,222.594 232.600 C 221.233 231.280,217.257 227.384,213.760 223.943 C 208.137 218.411,207.296 217.726,206.500 218.030 M193.939 220.300 C 192.200 222.146,184.823 229.377,170.286 243.482 C 166.386 247.266,163.026 250.806,162.820 251.347 C 162.607 251.909,162.457 260.059,162.471 270.325 C 162.485 280.222,162.379 288.510,162.236 288.742 C 162.092 288.975,162.389 289.436,162.895 289.768 C 163.792 290.356,163.994 290.196,170.842 283.486 C 174.707 279.699,182.218 272.350,187.534 267.155 L 197.200 257.709 197.200 238.298 C 197.200 218.354,197.203 218.400,195.832 218.400 C 195.775 218.400,194.923 219.255,193.939 220.300 M254.942 255.039 C 252.346 256.319,251.800 257.328,251.800 260.840 L 251.800 264.016 254.200 266.205 C 255.520 267.409,257.590 269.323,258.800 270.459 C 260.010 271.595,261.969 273.256,263.152 274.150 L 265.305 275.775 265.043 279.176 C 264.785 282.537,263.835 288.806,262.525 295.800 C 260.682 305.639,262.612 310.400,268.442 310.400 C 273.471 310.400,275.384 307.229,276.621 296.838 C 276.919 294.329,277.352 292.088,277.582 291.858 C 277.812 291.628,278.000 290.958,278.000 290.369 C 278.000 287.507,279.541 288.439,289.000 297.024 C 290.760 298.621,292.910 300.553,293.777 301.318 L 295.355 302.708 294.496 307.854 C 294.024 310.684,293.529 314.080,293.397 315.400 C 293.265 316.720,292.910 318.700,292.609 319.800 C 289.460 331.306,292.082 337.765,299.514 336.811 C 303.904 336.248,305.232 333.215,306.829 320.104 C 307.204 317.027,307.517 315.837,308.088 315.321 C 309.055 314.445,308.283 313.845,320.735 325.146 C 322.569 326.811,324.729 328.578,325.535 329.074 C 330.609 332.195,337.144 326.958,335.043 321.456 C 334.369 319.692,333.268 318.537,327.365 313.400 C 317.538 304.850,317.182 304.125,322.463 303.433 C 323.638 303.278,324.967 302.914,325.416 302.622 C 325.865 302.330,327.287 301.873,328.576 301.605 C 337.271 299.800,340.963 294.758,337.415 289.536 C 334.954 285.914,332.043 285.714,322.800 288.530 C 320.930 289.100,317.330 290.133,314.800 290.825 C 312.270 291.517,309.506 292.371,308.657 292.722 C 306.492 293.618,304.477 293.548,303.662 292.548 C 303.298 292.101,300.030 289.156,296.400 286.003 C 292.770 282.850,289.556 280.049,289.259 279.780 C 288.294 278.905,289.093 277.658,290.924 277.180 C 300.954 274.563,305.918 272.799,307.124 271.425 C 312.090 265.769,306.923 258.175,299.425 260.108 C 294.027 261.499,292.172 262.030,291.600 262.345 C 291.270 262.527,290.010 262.905,288.800 263.185 C 287.590 263.465,284.800 264.226,282.600 264.875 C 277.769 266.301,275.956 266.778,275.321 266.790 C 274.845 266.800,271.262 263.968,268.200 261.163 C 260.677 254.269,258.521 253.274,254.942 255.039 M144.069 256.403 C 143.116 256.835,142.036 257.536,141.669 257.961 C 141.097 258.621,135.370 263.572,130.838 267.325 C 129.477 268.452,127.035 268.579,125.799 267.588 C 125.579 267.411,124.049 266.907,122.399 266.467 C 120.750 266.027,118.140 265.294,116.600 264.838 C 115.060 264.382,112.642 263.732,111.228 263.394 C 109.813 263.055,108.463 262.619,108.228 262.424 C 107.485 261.810,102.702 261.124,100.970 261.384 C 96.794 262.010,93.989 268.030,96.238 271.537 C 97.201 273.039,99.268 274.765,100.126 274.784 C 100.525 274.793,101.695 275.148,102.726 275.574 C 103.757 276.000,105.554 276.540,106.720 276.774 C 107.886 277.008,109.362 277.470,110.000 277.800 C 110.638 278.130,111.811 278.400,112.606 278.400 C 115.160 278.400,116.798 280.466,115.048 281.480 C 114.540 281.775,109.924 285.782,108.439 287.218 C 99.936 295.438,99.670 295.534,92.000 293.122 C 81.444 289.802,74.757 288.034,72.687 288.014 C 67.840 287.969,64.783 292.696,66.462 297.640 C 67.163 299.707,69.015 301.042,72.800 302.210 C 74.670 302.787,77.280 303.595,78.600 304.006 C 79.920 304.417,81.720 304.877,82.600 305.029 C 85.753 305.574,86.767 307.017,84.858 308.242 C 84.276 308.616,83.260 309.416,82.600 310.020 C 81.940 310.624,79.780 312.552,77.800 314.304 C 67.643 323.293,66.578 326.197,71.938 330.285 C 75.290 332.841,77.509 332.152,83.800 326.601 C 96.906 315.038,95.821 315.902,96.383 316.580 C 96.866 317.162,97.087 318.226,98.170 325.195 C 99.615 334.494,99.550 334.269,101.336 336.227 C 103.255 338.331,105.110 338.942,107.961 338.409 C 112.697 337.525,114.364 332.830,112.578 325.400 C 112.261 324.080,111.734 321.110,111.407 318.800 C 111.080 316.490,110.543 312.980,110.215 311.000 C 108.993 303.636,108.568 304.452,117.604 296.802 C 119.032 295.594,120.290 294.514,120.400 294.402 C 125.303 289.439,126.800 288.926,126.800 292.210 C 126.800 293.152,127.156 295.691,127.590 297.851 C 128.025 300.012,128.495 302.865,128.635 304.190 C 129.489 312.274,138.658 314.749,142.282 307.873 C 143.376 305.798,143.385 305.286,142.425 300.037 C 141.998 297.707,141.358 293.730,141.001 291.200 C 140.644 288.670,140.188 285.966,139.987 285.191 C 138.344 278.847,138.705 277.915,144.800 272.775 C 152.280 266.467,153.383 265.007,153.114 261.767 C 152.740 257.256,148.166 254.544,144.069 256.403 M198.400 275.245 C 194.951 276.606,194.315 278.799,194.305 289.353 C 194.296 299.119,194.816 298.120,187.323 302.761 C 184.942 304.236,177.490 308.999,174.302 311.084 C 168.228 315.056,167.251 320.802,172.128 323.881 C 175.629 326.091,177.727 325.831,182.607 322.584 C 184.412 321.383,185.989 320.400,186.110 320.400 C 186.232 320.400,187.758 319.440,189.501 318.267 C 194.492 314.907,194.310 314.574,194.306 327.070 C 194.302 338.450,194.215 338.912,191.841 340.161 C 190.151 341.050,182.411 345.877,181.630 346.528 C 181.284 346.818,179.110 348.244,176.800 349.699 C 169.652 354.199,167.989 357.384,170.507 361.749 C 173.354 366.686,177.332 366.341,186.409 360.368 C 191.034 357.325,192.743 356.399,193.423 356.570 L 194.322 356.796 194.371 366.869 C 194.426 378.106,194.468 378.440,196.052 380.378 C 198.717 383.638,204.389 383.108,206.537 379.400 C 206.845 378.868,207.067 374.727,207.200 367.045 C 207.449 352.670,206.862 353.356,214.572 358.425 C 217.563 360.391,220.131 362.000,220.279 362.000 C 220.427 362.000,220.920 362.335,221.374 362.745 C 226.025 366.938,233.582 363.146,233.126 356.848 C 232.905 353.789,232.202 352.958,226.908 349.495 C 224.539 347.944,221.559 345.984,220.287 345.138 C 219.016 344.292,217.878 343.600,217.759 343.600 C 217.640 343.600,215.769 342.430,213.600 341.000 C 211.431 339.570,209.468 338.400,209.237 338.400 C 207.656 338.400,207.200 335.500,207.200 325.444 L 207.200 315.656 208.100 315.508 C 209.092 315.346,211.530 316.584,214.600 318.811 C 222.217 324.334,225.418 325.443,228.763 323.716 C 232.544 321.765,233.764 318.349,231.999 314.655 C 231.002 312.570,230.385 312.056,224.136 308.121 C 205.340 296.283,207.205 298.527,207.227 287.771 C 207.245 279.093,207.109 278.362,205.138 276.527 C 203.382 274.892,200.625 274.368,198.400 275.245 " stroke="none" fill="#1c1a1b" fill-rule="evenodd"></path></g></svg>